<svg width="26" height="23" viewBox="0 0 26 23" fill="none" xmlns="http://www.w3.org/2000/svg">
<path d="M12.2175 2.88951L12.8725 3.65511L13.6042 2.88951C16.179 0.314771 20.1711 0.434526 22.8185 2.88951L23.005 3.06914C25.5798 5.64387 24.9489 10.7901 22.4939 13.4375L22.171 13.7788L21.8115 14.1454C20.4262 15.5366 13.8077 21.2293 13.8077 21.2293C13.2439 21.6986 12.4234 21.6913 11.8681 21.212L9.85115 19.4612L8.05542 17.8815C5.92092 15.9887 4.31874 14.5074 3.24888 13.4375C0.612841 10.8015 0.105529 5.70518 2.74157 3.06914C5.37761 0.4331 9.58142 0.253467 12.2175 2.88951Z" fill="white" stroke="#262626" stroke-width="2"/>
</svg>
