<svg width="22" height="24" viewBox="0 0 22 24" fill="none" xmlns="http://www.w3.org/2000/svg">
<path fill-rule="evenodd" clip-rule="evenodd" d="M0.860596 1.17871V22.8311C0.860596 23.0939 0.96403 23.3461 1.14853 23.5332C1.5363 23.9265 2.16944 23.9309 2.56271 23.5432L11.1113 15.114L19.66 23.5432C19.8471 23.7277 20.0993 23.8311 20.3621 23.8311C20.9144 23.8311 21.3621 23.3834 21.3621 22.8311V1.17871C21.3621 0.902569 21.1382 0.678711 20.8621 0.678711H1.3606C1.08445 0.678711 0.860596 0.902569 0.860596 1.17871ZM2.3606 21.6359V2.17871H19.8621V21.6359L11.8134 13.6998C11.4241 13.3159 10.7986 13.3159 10.4092 13.6998L2.3606 21.6359Z" fill="white"/>
<path d="M2.3606 2.17871V21.6359L10.4092 13.6998C10.7986 13.3159 11.4241 13.3159 11.8134 13.6998L19.8621 21.6359V2.17871H2.3606Z" fill="white"/>
</svg>
